<?xml version="1.0" encoding="UTF-8" standalone="no"?>
<!-- Created with Inkscape (http://www.inkscape.org/) -->

<svg
   xmlns:dc="http://purl.org/dc/elements/1.1/"
   xmlns:cc="http://creativecommons.org/ns#"
   xmlns:rdf="http://www.w3.org/1999/02/22-rdf-syntax-ns#"
   xmlns:svg="http://www.w3.org/2000/svg"
   xmlns="http://www.w3.org/2000/svg"
   version="1.1"
   width="237"
   height="237"
   viewBox="0 0 237 237"
   id="svg2985"
   xml:space="preserve"><defs
     id="defs2987" /><metadata
     id="metadata2990"><rdf:RDF><cc:Work
         rdf:about=""><dc:format>image/svg+xml</dc:format><dc:type
           rdf:resource="http://purl.org/dc/dcmitype/StillImage" /><dc:title></dc:title></cc:Work></rdf:RDF></metadata><circle
     cx="50"
     cy="50"
     r="50"
     transform="scale(2.37,2.37)"
     id="circle6"
     style="fill:#b2b2b2" /><g
     transform="matrix(0.20731707,0,0,-0.20731707,13.768916,211.21186)"
     id="g2985"><path
       d="m 476,102 q -72,35 -102,91 -42,76 2,126 43,51 140,52 l -30,-28 q -83,-30 -87,-59 28,-43 182.5,-43 154.5,0 183.5,43 10,16 -13,33.5 -23,17.5 -14,26.5 10,9 35.5,-13.5 Q 799,308 805,285 837,167 679,100 573,55 476,102 z m 82,151 q 0,8 10.5,32.5 10.5,24.5 21,14.5 10.5,-10 -2.5,-33 z m 58,45 q 13,22 24,37 25,0 45,9 20,9 8,-9 -35,-62 -77,-37 z m -51.5,24.5 q -6.5,6.5 -6,40.5 0.5,34 7.5,34 8,0 24,-32.5 16,-32.5 11,-39.5 -5,-7 -17.5,-8 -12.5,-1 -19,5.5 z M 241,352 q -72,67 0,200 38,70 177,70 144,0 181,-67 14,-27 -13,-66 Q 559,450 553.5,424.5 548,399 495,393 386,381 360,343 352,331 304,334.5 256,338 241,352 z m 197,47 q 13,11 28,23 44,35 -9,57 -4,19 -5,37 l -5,30 q -24,14 -50,2 -29,-12 -32,-36.5 -3,-24.5 24,-35.5 25,-10 25,-26 0,-13 -9,-16 -9,-3 -16,7 -6,8 -21,3 l 17,-30 q 37,-29 53,-15 z m -5,43.5 q 0,21.5 11.5,10.5 11.5,-11 0,-21.5 Q 433,421 433,442.5 z m -39,67 q 0,13.5 10,13.5 10,0 10,-13.5 0,-13.5 -10,-13.5 -10,0 -10,13.5 z M 637,368 q 3,15 37.5,20.5 Q 709,394 721,401 679,332 637,368 z m -43,8 q -7,7 -6,40 1,33 9,44 9,13 9,-5 0,-18 15.5,-38.5 Q 637,396 632,383 620,352 594,376 z m 80,31 q 14,22 24,35 25,0 44,10 -26,-70 -68,-45 z m -51,23 q -7,7 -6.5,40 0.5,33 9.5,44 9,13 9,-5.5 0,-18.5 15.5,-38 Q 666,451 660,437 649,406 623,430 z m 46,30 q -5,8 11,35 16,27 30,31 l 3,-52 q -20,-49 -44,-14 z m -386,225 -29,28 25,17 q 25,17 71,12 76,-7 140,1 43,5 72,-15 l 28,-20 -33,-25 q -33,-26 -139,-26 -106,0 -135,28 z m 597,1 q 0,30 -11,56 -11,26 -29,45.5 -18,19.5 -42.5,31 Q 773,830 745,830 H 279 Q 251,830 226.5,818.5 202,807 184,787.5 166,768 155,742 144,716 144,686 V 187 q 0,-30 11,-56 11,-26 29,-45 Q 202,67 226.5,55.5 251,44 279,44 h 466 q 28,0 52.5,11.5 Q 822,67 840,86 q 18,19 29,46 11,27 11,55 V 686 z M 745,873 q 37,0 69,-14.5 32,-14.5 56,-40 24,-25.5 38,-59.5 14,-34 14,-73 V 187 Q 922,148 908,114.5 894,81 870,55.5 846,30 814,15 782,0 745,0 H 279 Q 242,0 210,15 178,30 154,55.5 130,81 116,114.5 102,148 102,187 v 499 q 0,39 14,73 14,34 38,59.5 24,25.5 56,40 32,14.5 69,14.5 h 466 z"
       id="path2987"
       style="fill:currentColor" /></g></svg>